<svg xmlns="http://www.w3.org/2000/svg" viewBox="0 0 50 50">
  <path d="M26 3C21.281852 3 15.783497 4.5094738 11.279297 6.0703125C6.7750971 7.6311512 3.3900569 9.2005535 2.6894531 9.5644531C0.25121721 10.835223 -0.70641635 13.87212 0.56445312 16.310547C1.8352234 18.748783 4.8721205 19.704463 7.3105469 18.433594C8.4250562 17.853298 12.350283 15.526521 16.853516 13.287109C21.356749 11.047697 26.473722 9 29 9C39.515152 9 48.335937 16.748047 48.335938 16.748047 A 1.0001 1.0001 0 0 0 49.736328 15.324219C49.736328 15.324219 49.666002 15.254103 49.664062 15.251953C49.459233 15.025152 38.547897 3 26 3 z M 26 5C29.803949 5 33.384254 6.4515078 36.699219 8.1992188C34.320094 7.4870771 31.732787 7 29 7C25.526278 7 20.545908 9.2170056 15.962891 11.496094C11.379874 13.775182 7.2312094 16.220452 6.3867188 16.660156C4.9071451 17.431287 3.1091204 16.866483 2.3378906 15.386719C1.5667601 13.907145 2.1335172 12.10912 3.6132812 11.337891C3.9963586 11.13902 7.5350396 9.4851669 11.933594 7.9609375C16.333394 6.4362762 21.718148 5 26 5 z M 25 19C10.829603 19 3.6352552 31.602812 3.203125 32.382812C3.2025438 32.383862 3.1997753 32.387666 3.1992188 32.388672 A 1.0001 1.0001 0 0 0 3.2519531 33.701172C3.9251119 34.893506 11.092998 47 25 47C38.895185 47 46.062342 34.915139 46.746094 33.705078 A 1.0001 1.0001 0 0 0 46.796875 32.380859 A 1.0001 1.0001 0 0 0 46.794922 32.378906C46.351778 31.579697 39.158581 19 25 19 z M 25 21C33.817746 21 39.625047 26.241605 42.578125 29.835938C40.513388 28.755858 37.800025 27.511566 34.664062 26.554688C31.722103 25.652638 28.41766 25 25 25C21.58234 25 18.277849 25.652638 15.335938 26.554688C12.199975 27.511566 9.4866123 28.755858 7.421875 29.835938C10.374953 26.241605 16.182254 21 25 21 z M 21.726562 27.228516 A 5 5 0 0 0 20 31 A 5 5 0 0 0 25 36 A 5 5 0 0 0 30 31 A 5 5 0 0 0 28.279297 27.230469C30.118547 27.457071 31.905123 27.83992 33.587891 28.332031C33.852576 29.175567 34 30.064049 34 31C34 35.978937 29.978937 40 25 40C20.021063 40 16 35.978937 16 31C16 30.064049 16.147424 29.175567 16.412109 28.332031C18.096692 27.839382 19.885196 27.454992 21.726562 27.228516 z M 14.171875 29.060547C14.059314 29.690759 14 30.338235 14 31C14 37.061063 18.938937 42 25 42C31.061063 42 36 37.061063 36 31C36 30.338235 35.940686 29.690759 35.828125 29.060547C40.003324 30.547479 43.225562 32.414635 44.626953 33.298828C43.434242 35.291191 37.044902 45 25 45C12.955098 45 6.5657576 35.291191 5.3730469 33.298828C6.7744379 32.414635 9.9966758 30.547479 14.171875 29.060547 z" fill="#5B5B5B" />
</svg>