<svg xmlns="http://www.w3.org/2000/svg" viewBox="0 0 50 50">
  <path d="M28 3.9277344C27.714375 3.9277344 27.428281 4.0392187 27.238281 4.2617188C26.497281 5.1327187 20 12.885 20 17C20 21.411 23.589 25 28 25C32.411 25 36 21.411 36 17C36 12.885 29.501719 5.1327188 28.761719 4.2617188C28.571219 4.0392187 28.285625 3.9277344 28 3.9277344 z M 25 16C25.552 16 26 16.447 26 17C26 18.103 26.897 19 28 19C28.552 19 29 19.447 29 20C29 20.553 28.552 21 28 21C25.794 21 24 19.206 24 17C24 16.447 24.448 16 25 16 z M 44.345703 25.980469C43.620652 25.956551 42.882812 26.141437 42.226562 26.554688L32.876953 32.316406C33.585953 33.039406 34 34.021687 34 35.054688C34 37.224688 32.234453 38.990234 30.064453 38.990234C29.758453 38.990234 29.455109 38.953766 29.162109 38.884766C28.393109 38.702766 18.569172 35.761734 17.451172 35.427734C16.922172 35.268734 16.62325 34.710641 16.78125 34.181641C16.94025 33.652641 17.497391 33.353719 18.025391 33.511719C22.391391 34.819719 29.084047 36.811453 29.623047 36.939453C29.766047 36.973453 29.914453 36.990234 30.064453 36.990234C31.131453 36.990234 32 36.123641 32 35.056641C32 34.367641 31.641969 33.748391 31.042969 33.400391C30.751969 33.231391 20.881484 28.915922 18.896484 28.044922C15.786484 26.678922 12.2005 26.645172 9.0625 27.951172L2.6152344 30.636719C2.1052344 30.846719 2 31.310359 2 31.943359L2 43.988281C2 44.540281 2.448 44.988281 3 44.988281C3.305 44.988281 3.5488906 44.823922 3.5878906 44.794922L7.0722656 42.238281C8.8482656 40.935281 11.215828 40.648859 13.298828 41.505859L24.994141 45.652344C25.651141 45.885344 26.331813 46 27.007812 46C28.298813 46 29.570812 45.582344 30.632812 44.777344L46.369141 32.853516C48.040141 31.701516 48.500969 29.453328 47.417969 27.736328C46.725469 26.637578 45.554121 26.020332 44.345703 25.980469 z" fill="#5B5B5B" />
</svg>