<svg xmlns="http://www.w3.org/2000/svg" viewBox="0 0 50 50">
  <path d="M27.964844 3.9101562 A 1.0001 1.0001 0 0 0 27.238281 4.2617188C27.238281 4.2617188 25.459415 6.3491922 23.675781 8.9375C22.783964 10.231654 21.888266 11.652747 21.199219 13.033203C20.510172 14.413659 20 15.731724 20 17C20 21.406438 23.593562 25 28 25C32.406438 25 36 21.406438 36 17C36 15.731724 35.489828 14.413659 34.800781 13.033203C34.111734 11.652747 33.216036 10.231654 32.324219 8.9375C30.540585 6.3491922 28.761719 4.2617187 28.761719 4.2617188 A 1.0001 1.0001 0 0 0 27.964844 3.9101562 z M 28 6.5566406C28.527827 7.1952932 29.339597 8.1332708 30.675781 10.072266C31.533964 11.317612 32.388266 12.676737 33.011719 13.925781C33.635172 15.174825 34 16.335276 34 17C34 20.325562 31.325562 23 28 23C24.674438 23 22 20.325562 22 17C22 16.335276 22.364828 15.174825 22.988281 13.925781C23.611734 12.676737 24.466036 11.317612 25.324219 10.072266C26.660403 8.1332708 27.472173 7.1952932 28 6.5566406 z M 24.984375 15.986328 A 1.0001 1.0001 0 0 0 24 17C24 19.197334 25.802666 21 28 21 A 1.0001 1.0001 0 1 0 28 19C26.883334 19 26 18.116666 26 17 A 1.0001 1.0001 0 0 0 24.984375 15.986328 z M 44.160156 25.984375C43.978035 25.987088 43.796481 26.003877 43.615234 26.033203C43.131911 26.111403 42.656521 26.286441 42.21875 26.5625L31.119141 33.402344C30.862928 33.262254 30.54879 33.107561 30.134766 32.908203C29.659014 32.679123 29.161502 32.445393 28.880859 32.318359C27.370167 31.6352 22.55385 29.647251 18.898438 28.042969C17.334692 27.356725 15.663348 27.005995 13.990234 26.990234C12.317121 26.974474 10.640791 27.294229 9.0644531 27.951172L2.6171875 30.636719 A 1.0001 1.0001 0 1 0 3.3867188 32.482422L9.8339844 29.796875C12.483309 28.692761 15.465239 28.721482 18.09375 29.875C21.784336 31.494718 26.679333 33.517784 28.056641 34.140625C28.303998 34.252592 28.80358 34.487516 29.267578 34.710938C29.731577 34.934357 30.219272 35.181535 30.259766 35.205078C30.705948 35.464599 31.001953 35.929151 31.001953 36.488281C31.001953 37.329093 30.342765 37.988281 29.501953 37.988281C29.382787 37.988281 29.269735 37.974949 29.162109 37.949219 A 1.0001 1.0001 0 0 0 29.160156 37.949219C29.134926 37.943219 28.343774 37.721019 27.384766 37.439453C26.425757 37.157887 25.207461 36.796274 24.007812 36.439453C21.608515 35.725811 19.289062 35.03125 19.289062 35.03125 A 1.0001054 1.0001054 0 1 0 18.714844 36.947266C18.714844 36.947266 21.035798 37.641111 23.4375 38.355469C24.638351 38.712648 25.859024 39.074613 26.822266 39.357422C27.78458 39.639959 28.397179 39.823361 28.697266 39.894531C28.95764 39.956791 29.227119 39.988281 29.501953 39.988281C31.423141 39.988281 33.001953 38.40947 33.001953 36.488281C33.001953 35.89616 32.847309 35.339664 32.583984 34.849609L43.277344 28.259766 A 1.0001 1.0001 0 0 0 43.287109 28.253906C44.124027 27.726144 45.200949 27.970034 45.728516 28.806641C46.240966 29.618936 46.026755 30.663506 45.236328 31.208984 A 1.0001 1.0001 0 0 0 45.199219 31.234375L29.425781 43.185547C28.349072 44.001891 26.938012 44.221423 25.664062 43.769531L14.015625 39.640625C11.322302 38.529005 8.2398526 38.903354 5.890625 40.626953L2.40625 43.183594 A 1.0001 1.0001 0 1 0 3.5898438 44.794922L7.0742188 42.240234C8.8629911 40.927834 11.201276 40.643854 13.251953 41.490234 A 1.0001 1.0001 0 0 0 13.300781 41.507812L24.996094 45.654297C26.902144 46.330405 29.023475 46.000953 30.634766 44.779297L46.371094 32.855469C48.026667 31.712947 48.493472 29.441939 47.419922 27.740234C46.695138 26.590883 45.435008 25.965387 44.160156 25.984375 z" fill="#5B5B5B" />
</svg>