<svg width="90" height="90" viewBox="0 0 90 90" fill="none" xmlns="http://www.w3.org/2000/svg">
<rect width="90" height="90" rx="4" fill="#F8F8FB"/>
<path d="M30.0006 42.248C30.001 42.0368 30.0433 41.8279 30.1173 41.6301C30.2272 41.3364 30.3331 41.0403 30.4935 40.7774C30.7827 40.2994 31.2643 40.0424 31.7781 39.8489C33.0006 39.3912 34.2207 38.9275 35.442 38.4686C35.9092 38.2942 36.3777 38.1245 36.8461 37.9524C37.2882 37.7887 37.6121 37.8939 37.7387 38.2416C37.8654 38.5893 37.6957 38.8666 37.2691 39.0291C35.5101 39.6967 33.7507 40.3623 31.9909 41.0259C31.8227 41.0905 31.6699 41.1895 31.5421 41.3165C31.4144 41.4436 31.3147 41.5959 31.2492 41.7637C31.1837 41.9316 31.154 42.1112 31.162 42.2912C31.1699 42.4711 31.2154 42.6474 31.2954 42.8088C31.5487 43.2868 32.0924 43.4816 32.6899 43.2809C33.5909 42.9797 34.4824 42.6666 35.3894 42.3631C38.1084 41.4462 40.8278 40.53 43.5476 39.6146C45.1943 39.0638 46.8398 38.5093 48.4972 37.9942C49.3822 37.7249 50.3364 37.8005 51.168 38.2058C51.5681 38.3927 51.9514 38.6133 52.314 38.8654C53.2891 39.5322 54.2475 40.2265 55.2178 40.8969C55.4981 41.0916 55.7812 41.2822 56.0692 41.4685C56.2929 41.6132 56.5417 41.353 56.3889 41.1347C55.5978 40.003 54.8127 38.8642 54.0061 37.7445C53.4284 36.9322 52.652 36.2817 51.7512 35.8552C49.9838 35.0187 48.1662 34.9112 46.3247 35.6031C44.9684 36.1121 43.6133 36.6284 42.2534 37.1291C42.0768 37.1947 41.8869 37.216 41.7001 37.1912C41.595 37.1707 41.4998 37.1155 41.4299 37.0345C41.4239 37.0276 41.4181 37.0205 41.4126 37.0133C41.2946 36.8597 41.2699 36.6392 41.3387 36.4581C41.3418 36.45 41.345 36.442 41.3485 36.434C41.3912 36.3364 41.4626 36.2542 41.5531 36.1982C41.6342 36.1472 41.7203 36.1047 41.8101 36.0715C43.3098 35.5087 44.7975 34.9124 46.3152 34.3985C47.9583 33.8369 49.6181 33.8883 51.2684 34.4308C52.9712 34.9912 54.2678 36.0619 55.2704 37.5282C56.5825 39.445 57.9025 41.3569 59.2306 43.2641C59.4254 43.5462 59.6488 43.809 59.8424 44.0911C60.0611 44.4089 60.048 44.6886 59.8293 44.9037C59.6106 45.1188 59.2712 45.1295 58.9808 44.9264C57.9245 44.1879 56.8753 43.4398 55.8201 42.7025C54.4733 41.762 53.129 40.8192 51.7715 39.8955C51.1465 39.4712 50.5155 39.0088 49.7113 39.0267C49.2906 39.0277 48.8721 39.0884 48.4685 39.2072C46.9963 39.6744 45.536 40.1799 44.071 40.6734L36.0777 43.3645C35.0771 43.7007 34.0761 44.0345 33.0747 44.3659C31.9992 44.7244 30.9883 44.4257 30.4039 43.5378C30.2698 43.3336 30.1892 43.0943 30.1072 42.856C30.0398 42.6602 30.0002 42.4551 30.0006 42.248Z" fill="black"/>
<path d="M32.9385 49.3562C33.5302 48.9715 33.51 48.1054 32.9965 47.6211C32.9129 47.5423 32.8307 47.4633 32.7497 47.3833C32.4043 47.0439 32.4987 46.5468 32.9205 46.3998C33.1918 46.3066 33.3985 46.4285 33.5993 46.6041C33.9936 46.9555 34.3772 47.3211 34.7943 47.645C36.7577 49.1753 39.0844 50.1704 41.5472 50.5333C43.4999 50.8231 45.4909 50.7186 47.4026 50.2261C48.8366 49.8676 50.1511 49.2582 51.4082 48.5077C52.2586 47.9837 53.0509 47.3708 53.7719 46.6794C53.8337 46.619 53.8987 46.5619 53.9667 46.5085C54.2331 46.3114 54.5426 46.3257 54.7506 46.542C54.8042 46.5948 54.8465 46.6581 54.8749 46.7278C54.9033 46.7976 54.9171 46.8724 54.9155 46.9477C54.9139 47.023 54.897 47.0972 54.8658 47.1657C54.8345 47.2342 54.7896 47.2957 54.7338 47.3462C54.4148 47.6665 54.0706 47.9604 53.7372 48.2652C53.6126 48.3812 53.5876 48.571 53.6984 48.7004C54.0106 49.0651 54.4018 49.3559 54.8438 49.5498C55.0099 49.6239 55.1832 49.6836 55.3445 49.7685C55.6468 49.925 55.7448 50.1341 55.6683 50.4197C55.6199 50.545 55.5323 50.6512 55.4186 50.7227C55.3049 50.7942 55.1712 50.8271 55.0374 50.8165C54.8307 50.7841 54.6296 50.7229 54.4399 50.6348C53.8264 50.3652 53.2801 49.9663 52.8377 49.4671C52.6907 49.3013 52.4454 49.2538 52.2579 49.372C52.0951 49.4747 52.019 49.6755 52.0956 49.852C52.2187 50.1355 52.384 50.3994 52.5866 50.6345C52.8603 50.9522 53.1962 51.2106 53.5735 51.3936C53.7097 51.4629 53.8567 51.5131 53.993 51.5848C54.1313 51.6462 54.2396 51.7599 54.2941 51.9011C54.3485 52.0423 54.3447 52.1993 54.2833 52.3377C54.222 52.476 54.1082 52.5843 53.967 52.6388C53.8259 52.6932 53.6688 52.6894 53.5305 52.6281C52.879 52.4113 52.2956 52.0278 51.8384 51.5155C51.5743 51.2109 51.3355 50.8849 51.0856 50.5475C50.9256 50.3314 50.6361 50.2503 50.4022 50.383C50.3654 50.4039 50.3294 50.4281 50.3056 50.4631C50.2928 50.482 50.2823 50.5024 50.2743 50.5239C50.2589 50.5654 50.2536 50.61 50.2586 50.6539C50.4044 51.5418 50.8035 52.2672 51.6341 52.6914C52.0332 52.8957 52.2124 53.1598 52.13 53.4693C52.0248 53.8673 51.5982 54.0298 51.2003 53.8087C50.7058 53.5481 50.2723 53.1853 49.9287 52.7444C49.585 52.3035 49.339 51.7946 49.207 51.2514C49.1601 51.0722 48.9744 50.9658 48.7994 51.0264C48.7336 51.0492 48.6683 51.0734 48.6036 51.099C48.544 51.1226 48.4857 51.1555 48.4541 51.2112C48.4467 51.2241 48.4403 51.2375 48.4348 51.2514C48.4175 51.2954 48.4102 51.3428 48.4136 51.3901C48.4708 52.1519 48.7631 52.8771 49.25 53.4657C49.599 53.8971 49.6229 54.2246 49.3182 54.4683C49.0134 54.7121 48.6908 54.6177 48.3622 54.2031C47.8536 53.5527 47.4323 52.8607 47.2646 52.0427C47.2041 51.7472 46.9292 51.5274 46.6326 51.5826C46.384 51.6289 46.2067 51.8542 46.2435 52.1044C46.3244 52.6556 46.489 53.1921 46.7322 53.6952C46.8242 53.8959 46.9377 54.0859 47.0357 54.2843C47.2042 54.6225 47.1206 54.9439 46.8278 55.1077C46.535 55.2714 46.2172 55.159 46.0248 54.8292C45.538 54.0089 45.2187 53.1015 45.0841 52.1596C45.0552 51.9571 44.8781 51.8054 44.6741 51.8197L44.6509 51.8213C44.467 51.8342 44.3243 51.9872 44.3243 52.1716C44.3243 53.1276 44.3243 54.0836 44.3243 55.03C44.3273 55.1454 44.3213 55.2609 44.3064 55.3753C44.2756 55.5023 44.2041 55.6156 44.1029 55.6981C44.0016 55.7805 43.8761 55.8275 43.7455 55.8318C43.615 55.8362 43.4866 55.7976 43.3801 55.7221C43.2736 55.6465 43.1947 55.5382 43.1556 55.4136C43.1277 55.2723 43.1153 55.1285 43.1186 54.9846C43.1186 54.0513 43.1186 53.118 43.1186 52.1835V52.1798C43.1186 51.9918 42.9738 51.8355 42.7863 51.8211C42.6159 51.8081 42.4598 51.9167 42.4139 52.0813C42.2458 52.6836 42.0915 53.2679 41.8961 53.8398C41.7665 54.1813 41.6065 54.5104 41.4181 54.8233C41.2341 55.1579 40.9043 55.2654 40.6198 55.1112C40.3127 54.9439 40.2231 54.6165 40.4179 54.2652C40.8306 53.5579 41.1032 52.7777 41.2209 51.9672C41.2431 51.7942 41.1192 51.6361 40.9479 51.603L40.7497 51.5646C40.4884 51.5141 40.2367 51.6885 40.1897 51.9505C40.0271 52.8778 39.536 53.6366 38.9505 54.3405C38.9037 54.4051 38.844 54.4594 38.7753 54.4999C38.7066 54.5404 38.6302 54.5663 38.551 54.576C38.4718 54.5856 38.3915 54.5788 38.3151 54.556C38.2386 54.5331 38.1677 54.4948 38.1068 54.4432C37.8534 54.2234 37.8307 53.8959 38.0829 53.5948C38.5726 53.034 38.8954 52.3472 39.015 51.6123C39.0843 51.1678 39.0915 51.1678 38.6768 51.0292C38.522 50.9776 38.3533 51.0514 38.2881 51.201C38.0961 51.6417 37.9167 52.0772 37.6873 52.4811C37.3492 53.0666 36.827 53.4861 36.2319 53.8027C35.9068 53.976 35.5232 53.8804 35.3703 53.6008C35.3287 53.5317 35.3025 53.4545 35.2935 53.3744C35.2845 53.2943 35.2929 53.2132 35.3181 53.1367C35.3432 53.0601 35.3846 52.9899 35.4394 52.9308C35.4942 52.8717 35.5611 52.8251 35.6356 52.7942C36.2738 52.4876 36.7714 51.9497 37.0277 51.2897C37.0437 51.2548 37.0573 51.2189 37.0683 51.1821C37.2273 50.5482 37.2985 50.4775 37.0108 50.3433C36.7553 50.2242 36.4668 50.3544 36.3227 50.5966C35.7893 51.5182 34.9532 52.2268 33.9566 52.6018C33.5981 52.7404 33.285 52.6185 33.1607 52.3102C33.0365 52.0019 33.1607 51.6888 33.5192 51.5442C34.2984 51.2299 34.909 50.734 35.2854 49.9728C35.3042 49.9346 35.3217 49.8958 35.3388 49.8559C35.4164 49.6756 35.349 49.4643 35.1849 49.3565C35.0042 49.2378 34.7635 49.2829 34.6215 49.446C34.2659 49.8541 33.8398 50.1967 33.3627 50.4568C33.1085 50.5919 32.843 50.7046 32.5692 50.7938C32.182 50.9133 31.7841 50.6551 31.7614 50.2883C31.744 50.1923 31.7589 50.0933 31.8039 50.0068C31.8489 49.9202 31.9214 49.8511 32.01 49.8103C32.3306 49.6829 32.641 49.5311 32.9385 49.3562Z" fill="black"/>
<path d="M39.6579 38.0647C39.5075 38.0651 39.3628 38.0067 39.2548 37.902C39.1468 37.7974 39.0839 37.6546 39.0795 37.5043C39.0823 37.3484 39.1468 37.2001 39.2588 37.0917C39.3708 36.9833 39.5212 36.9237 39.677 36.9259C39.7536 36.9232 39.83 36.9358 39.9017 36.9629C39.9733 36.99 40.0389 37.0311 40.0945 37.0838C40.1501 37.1366 40.1947 37.1998 40.2256 37.27C40.2565 37.3401 40.2731 37.4157 40.2745 37.4923C40.2805 37.8305 40.0235 38.0683 39.6579 38.0647Z" fill="black"/>
</svg>
