<svg xmlns="http://www.w3.org/2000/svg" viewBox="0 0 32 32">
  <path fill="none" stroke="#5B5B5B" stroke-width="2" d="M.83 23.092c13.614-13.263 19.625-1.82 27.227-1.82M21.106 18.941c4.631.264 7.893-.437 9.564-2.958M26.321 21.072c1.979.441 3.483.178 4.849-.602M17.769 17.488c4.833-.269 8.735-2.57 9.851-5.744M14.12 16.803c4.957-1.516 6.983-4.428 7.689-7.069M10.781 17.005c3.632-2.181 5.009-4.958 5.55-7.474M6.672 18.556c2.647-2.216 4.172-5.085 4.328-7.577M3.586 20.612C5.165 18.54 6.024 16.342 6 14.365" />
</svg>