<svg xmlns="http://www.w3.org/2000/svg" viewBox="0 0 48 48">
  <path d="M22.5 2C20.585045 2 19 3.5850452 19 5.5L19 13.5 A 1.50015 1.50015 0 0 0 20.5 15L22.5 15L22.5 19L20.5 19C17.480226 19 15 21.480226 15 24.5L15 27.039062C11.36945 29.776152 9 34.112206 9 39L9 44.5 A 1.50015 1.50015 0 1 0 12 44.5L12 39C12 35.95289 13.13704 33.190219 15 31.078125L15 37.5C15 41.624501 18.375499 45 22.5 45L25.5 45C29.624501 45 33 41.624501 33 37.5L33 31.09375C34.858267 33.205023 36 35.957121 36 39L36 44.5 A 1.50015 1.50015 0 1 0 39 44.5L39 39C39 34.105045 36.639209 29.743764 33 27.007812L33 24.5C33 21.480226 30.519774 19 27.5 19L25.5 19L25.5 15L27.5 15 A 1.50015 1.50015 0 0 0 29 13.5L29 5.5C29 3.5850452 27.414955 2 25.5 2L22.5 2 z M 22.5 5L25.5 5C25.795045 5 26 5.2049548 26 5.5L26 12L24.246094 12 A 1.50015 1.50015 0 0 0 23.759766 12L22 12L22 5.5C22 5.2049548 22.204955 5 22.5 5 z M 20.5 22L22.5 22L22.5 25.009766L22.496094 25.009766L21.019531 30.835938C20.917531 31.444938 21.387859 32 22.005859 32L26 32C26.618 32 27.088328 31.445938 26.986328 30.835938L25.5 25.009766L25.5 22L27.5 22C28.898226 22 30 23.101774 30 24.5L30 37.5C30 40.003499 28.003499 42 25.5 42L22.5 42C19.996501 42 18 40.003499 18 37.5L18 24.5C18 23.101774 19.101774 22 20.5 22 z" fill="#5B5B5B" />
</svg>