<svg width="90" height="90" viewBox="0 0 90 90" fill="none" xmlns="http://www.w3.org/2000/svg">
<rect width="90" height="90" rx="4" fill="#F8F8FB"/>
<path d="M30.0009 51.6896C30.0003 51.4819 30.0315 51.2762 30.0819 51.0747C30.2406 50.452 30.6042 49.9007 31.1141 49.5096C32.1968 48.6586 33.2787 47.8049 34.3596 46.9486C35.3865 46.1325 36.3958 45.2909 37.4334 44.4896C39.0441 43.2467 40.6548 41.9957 42.3004 40.8118C43.0423 40.2527 43.8947 39.8578 44.801 39.6535C45.8144 39.4494 46.4735 40.1206 46.2372 41.1299C46.0761 41.8145 45.6775 42.3742 45.2614 42.9192C45.099 43.1312 45.0158 43.3097 45.1097 43.5903C45.1732 43.7797 45.1907 43.9795 45.2099 44.1889C45.2228 44.3299 45.3813 44.399 45.4963 44.3164C46.2184 43.7795 46.9151 43.2131 47.6694 42.7326C48.4748 42.2212 49.2801 41.7058 50.2197 41.4588C50.3311 41.4293 50.4438 41.4051 50.5579 41.3836C51.5445 41.2064 52.2062 41.8843 51.9982 42.8668C51.8639 43.5245 51.5056 44.0829 51.1029 44.601C50.9909 44.7244 50.9158 44.8767 50.8859 45.0406C50.856 45.2045 50.8726 45.3735 50.9338 45.5285C51.0524 45.9239 51.0596 46.3535 51.0869 46.7908C51.0957 46.9309 51.2452 47.0129 51.37 46.9486C51.9485 46.6372 52.5324 46.3486 53.1928 46.2439C54.2397 46.0775 54.9135 46.8238 54.5981 47.8412C54.2894 48.8371 53.6921 49.6573 52.9458 50.374C52.7512 50.5619 52.6599 50.7297 52.7619 51.0451C53.1646 52.2814 52.8814 53.3887 51.9794 54.3189C51.6737 54.6137 51.3486 54.8877 51.0062 55.139C50.7727 55.3229 50.5217 55.2934 50.3646 55.0934C50.3294 55.047 50.3038 54.994 50.2894 54.9376C50.2751 54.8811 50.2722 54.8224 50.2809 54.7648C50.2897 54.7072 50.3099 54.6519 50.3404 54.6023C50.371 54.5527 50.4111 54.5097 50.4586 54.4759C50.7485 54.2222 51.0707 54.0021 51.3445 53.7323C51.8939 53.1933 52.1257 52.554 52.051 51.7947C52.0344 51.6266 51.836 51.5662 51.7136 51.6827C51.1136 52.2196 50.5391 52.7767 49.9069 53.2652C49.1405 53.8598 48.2479 54.0088 47.3043 53.7726C46.9819 53.7011 46.6847 53.5444 46.4434 53.319C46.2021 53.0935 46.0257 52.8075 45.9325 52.4907C45.8734 52.3135 45.6617 52.2442 45.5153 52.3603L37.6324 58.6079C37.5571 58.6676 37.5937 58.7953 37.6897 58.7953C39.7747 58.7953 41.8597 58.7953 43.9447 58.7953C44.6284 58.8092 45.2947 58.5789 45.8238 58.1457C46.3808 57.6973 46.9352 57.2477 47.4949 56.8034C47.9258 56.4638 48.362 56.1323 48.7996 55.8021C49.0546 55.6088 49.3056 55.6276 49.4707 55.837C49.6358 56.0464 49.5821 56.292 49.3499 56.4732C48.2197 57.3591 47.107 58.2705 45.9352 59.0973C45.6952 59.267 45.4068 59.3675 45.1103 59.456C44.6666 59.5885 44.2045 59.6611 43.7415 59.6611H35.2805C34.8375 59.6611 34.1975 59.4816 34.3623 59.0705C34.4684 58.806 34.6992 58.7873 34.9408 58.7913C35.2307 58.7913 35.5207 58.802 35.8093 58.7913C35.9213 58.7866 36.0295 58.7493 36.1207 58.6839C36.705 58.2436 37.2839 57.7962 37.8575 57.3416C39.6123 55.9538 41.3644 54.5636 43.1138 53.1713C44.6144 51.974 46.1084 50.7673 47.6076 49.5687C48.2466 49.0586 48.9123 48.5794 49.5271 48.0412C49.8323 47.7661 50.0496 47.4071 50.152 47.0092C50.2308 46.7032 50.2389 46.3847 50.1773 46.0773C50.1548 45.9648 50.0081 45.9441 49.9311 46.0291C49.1083 46.7969 48.2882 47.5674 47.4546 48.3217C46.9208 48.7915 46.2429 49.0656 45.5325 49.0989C44.4118 49.1861 43.5192 48.5499 43.2252 47.4586C43.2033 47.3831 43.107 47.3587 43.0423 47.4035C42.8595 47.53 42.6858 47.6467 42.5219 47.7768C40.8431 49.1047 39.1662 50.434 37.4911 51.7646C35.5046 53.3422 33.5194 54.9202 31.5355 56.4987C30.8456 57.049 30.8483 57.0531 30.8859 57.9322C30.8852 58.0461 30.9072 58.159 30.9507 58.2642C30.9942 58.3695 31.0582 58.465 31.1391 58.5451C31.22 58.6253 31.3161 58.6884 31.4218 58.7309C31.5274 58.7734 31.6405 58.7944 31.7543 58.7926C32.0228 58.8007 32.2912 58.7926 32.5597 58.7926C32.808 58.7926 33.0348 58.8289 33.1261 59.0919C33.2735 59.5168 32.6181 59.6624 32.1684 59.6624H31.9843C31.6423 59.6624 31.2929 59.625 30.9839 59.4785C30.63 59.3104 30.3927 59.0525 30.2264 58.7394C30.0503 58.408 30.0183 58.0236 30.0172 57.6483L30.0009 51.6896ZM44.3285 44.2914C44.3267 44.1973 44.2173 44.1582 44.1473 44.2211C43.4158 44.8923 42.6937 45.5701 41.9474 46.2224C41.4444 46.6852 40.7916 46.9515 40.1085 46.9728C39.1343 46.9942 38.1481 46.5726 37.9147 45.4249C37.9133 45.418 37.9131 45.4122 37.9116 45.4053C37.8999 45.3503 37.8155 45.3448 37.7673 45.374C37.6692 45.4333 37.5735 45.4965 37.4804 45.5634C35.5529 47.0909 33.6263 48.6201 31.7006 50.1512C31.4332 50.3514 31.2178 50.6129 31.0728 50.9138C30.9277 51.2147 30.8571 51.5461 30.8671 51.88C30.8671 53.1256 30.8671 54.3712 30.8671 55.6168C30.8671 55.7157 30.9913 55.7654 31.07 55.7056C31.6343 55.277 32.1837 54.8668 32.7221 54.4424C34.4491 53.0813 36.173 51.7163 37.8938 50.3472C38.6266 49.7646 39.3528 49.174 40.087 48.5929C41.244 47.6774 42.4078 46.7714 43.5594 45.8506C43.8334 45.6485 44.0477 45.3763 44.18 45.0626C44.2832 44.818 44.3334 44.5552 44.3285 44.2914ZM45.4936 48.2197C45.977 48.2062 46.4412 48.0277 46.809 47.7137C47.4103 47.205 48.017 46.6989 48.5835 46.15C49.421 45.3379 50.213 44.4762 50.817 43.4654C50.9708 43.1801 51.0812 42.8733 51.1445 42.5554C51.1995 42.3245 51.0572 42.1755 50.8103 42.2239C50.532 42.2579 50.2604 42.3339 50.0049 42.4494C49.0962 42.9487 48.1633 43.4225 47.3204 44.0171C46.2171 44.7929 45.1889 45.6735 44.1312 46.5124C43.9942 46.6055 43.9714 46.7926 43.9764 46.9582C43.9998 47.73 44.5854 48.2513 45.4936 48.2197ZM-nan -nanL48.1244 52.9941C48.6151 52.9901 49.0894 52.8166 49.4667 52.5028C50.0707 51.9794 50.6841 51.4612 51.2452 50.8921C51.8062 50.323 52.327 49.6626 52.8881 49.0653C53.2838 48.6718 53.5809 48.1902 53.7552 47.66C53.8974 47.1848 53.7229 46.9795 53.2612 47.1231C52.7357 47.275 52.2267 47.4792 51.7418 47.7325C49.9257 48.7298 48.3862 50.1109 46.7432 51.3565C46.6866 51.4038 46.6505 51.4711 46.6426 51.5445C46.6077 52.4773 47.1218 53.0035 48.1244 52.9941L-nan -nanZM-nan -nanL39.9864 46.1003C40.4341 46.1103 40.8716 45.9658 41.2253 45.6909C41.832 45.1876 42.4333 44.6842 43.0091 44.1393C43.4863 43.69 43.9274 43.2039 44.3285 42.6856C44.7254 42.1679 45.0715 41.6132 45.3621 41.0293C45.5715 40.6011 45.3621 40.4051 44.9017 40.5152C44.713 40.5536 44.5296 40.6144 44.3554 40.6964C43.75 41.0105 43.1111 41.2829 42.5635 41.6789C41.2897 42.597 40.0615 43.5782 38.8186 44.5379C38.754 44.5884 38.7117 44.6621 38.7005 44.7433C38.6575 45.5862 39.1448 46.0963 39.9864 46.1003L-nan -nanZ" fill="black"/>
<path d="M58.4262 36.2817C58.1959 36.2099 57.9685 36.4003 57.9685 36.6416C57.9685 37.3589 57.9685 38.0474 57.9685 38.7367C57.9685 39.0086 57.9527 39.2718 57.8598 39.5207C57.7894 39.7089 57.6597 39.8798 57.6533 40.0807C57.6526 40.1043 57.6529 40.1279 57.6544 40.1515C57.6239 41.5711 57.3981 42.9799 56.9833 44.3379C56.8126 44.8699 56.6091 45.3908 56.3739 45.8976C56.3087 46.0549 56.2077 46.1947 56.079 46.3061C55.9502 46.4174 55.7973 46.4972 55.6323 46.539C55.4673 46.5808 55.2948 46.5836 55.1285 46.5471C54.9623 46.5105 54.8069 46.4357 54.6746 46.3285C54.3477 46.0879 54.0341 45.8298 53.735 45.5554C53.3243 45.1836 53.3042 44.6252 53.7162 44.2534C54.9968 43.1017 55.4786 41.6011 55.6437 39.9582C55.6807 39.7905 55.5717 39.6335 55.5164 39.471C55.4158 39.1755 55.4316 38.8627 55.4316 38.5515C55.4316 37.5958 55.4316 36.6401 55.4316 35.6844C55.4316 35.5099 55.386 35.424 55.2102 35.3851C54.9566 35.3259 54.7065 35.2524 54.4612 35.165C54.2059 35.0837 53.9827 34.924 53.8235 34.7085C53.6642 34.4931 53.5769 34.2329 53.574 33.965C53.5592 33.0254 53.5565 32.0926 53.574 31.1557C53.5738 31.0026 53.6042 30.8511 53.6635 30.71C53.7227 30.5689 53.8097 30.4411 53.9191 30.3341C54.0286 30.2272 54.1584 30.1432 54.3008 30.0872C54.4432 30.0312 54.5954 30.0043 54.7484 30.0081C56.1095 29.9973 57.4705 29.9973 58.8316 30.0081C58.9844 30.007 59.1359 30.0363 59.2773 30.0942C59.4188 30.1522 59.5473 30.2376 59.6554 30.3457C59.7635 30.4537 59.8492 30.5821 59.9073 30.7234C59.9654 30.8648 59.9949 31.0163 59.994 31.1691C60.002 31.4 60.002 31.6322 59.994 31.863C59.9832 32.1583 59.8114 32.3369 59.5564 32.3342C59.3014 32.3315 59.139 32.1516 59.1296 31.8523C59.1296 31.6402 59.1296 31.4282 59.1296 31.2161C59.1342 31.1697 59.1285 31.123 59.1128 31.0791C59.097 31.0353 59.0717 30.9955 59.0387 30.9627C59.0056 30.9299 58.9656 30.9049 58.9217 30.8895C58.8777 30.8741 58.8309 30.8688 58.7846 30.8738C57.4531 30.8738 56.1211 30.8738 54.7887 30.8738C54.7424 30.8683 54.6954 30.8733 54.6513 30.8885C54.6071 30.9036 54.567 30.9284 54.5337 30.9612C54.5005 30.9939 54.475 31.0337 54.4592 31.0776C54.4434 31.1214 54.4377 31.1683 54.4424 31.2147C54.4424 32.1096 54.4424 33.0071 54.4424 33.9073C54.4392 34.0152 54.4747 34.1207 54.5423 34.2049C54.61 34.289 54.7054 34.3463 54.8115 34.3663L58.0088 35.2764C58.2034 35.3314 58.398 35.3865 58.594 35.4348C58.9578 35.5234 59.1309 35.3932 59.1309 35.0173C59.1309 34.6898 59.1309 34.361 59.1309 34.0335C59.1309 33.706 59.2933 33.5234 59.5537 33.518C59.8141 33.5127 59.9926 33.7033 59.9966 34.0429C60.0007 34.3825 59.9966 34.7382 59.9966 35.0858C59.9792 35.973 59.2853 36.4992 58.4262 36.2817ZM56.6454 40.3079C56.559 40.3029 56.4837 40.3657 56.4718 40.4514C56.2797 41.8317 55.8673 43.0891 55.0194 44.1437C54.6763 44.5705 54.6731 45.2212 55.1028 45.5607C55.3713 45.7728 55.5055 45.746 55.6518 45.4265C56.3844 43.8381 56.6893 42.1534 56.7733 40.4193C56.7737 40.4117 56.7735 40.404 56.7723 40.3965C56.7644 40.3447 56.7163 40.3119 56.664 40.309L56.6454 40.3079ZM56.8125 35.8404C56.5619 35.7684 56.3122 35.9564 56.3122 36.2171C56.3122 37.1799 56.3122 38.11 56.3122 39.0401C56.3087 39.0915 56.3161 39.143 56.334 39.1913C56.352 39.2396 56.3799 39.2835 56.4161 39.3202C56.4522 39.3568 56.4958 39.3854 56.5438 39.404C56.5919 39.4226 56.6433 39.4308 56.6947 39.428C56.935 39.428 57.0625 39.2723 57.0866 39.0454C57.1041 38.8642 57.0947 38.6803 57.096 38.4978V36.2171C57.096 36.0424 56.9804 35.8887 56.8125 35.8404Z" fill="black"/>
</svg>
