<svg width="90" height="90" viewBox="0 0 90 90" fill="none" xmlns="http://www.w3.org/2000/svg">
<rect width="90" height="90" rx="4" fill="#F8F8FB"/>
<path d="M58.7226 30.0034C58.8507 30.0048 58.9783 30.0274 59.0953 30.0795C59.2322 30.1405 59.3652 30.2101 59.4934 30.2879C59.759 30.4858 59.9359 30.7804 59.9857 31.1078C60.0355 31.4353 59.9542 31.7692 59.7594 32.0371C59.5798 32.2879 59.3481 32.5004 59.1521 32.7417C58.5942 33.4271 58.0554 34.1125 57.4879 34.7979C56.7943 35.6355 56.091 36.4648 55.3864 37.2942C54.7312 38.0664 54.0727 38.8345 53.4111 39.5986C52.7256 40.3868 52.0526 41.175 51.3658 41.9564C51.3293 41.998 51.2927 42.0395 51.256 42.0809C50.5213 42.9113 50.5764 44.1567 51.3685 44.9325V44.9325C51.9169 45.4698 52.4529 46.0209 53.0012 46.5596C53.7085 47.2574 54.4227 47.9483 55.1356 48.6406C55.7753 49.2602 56.415 49.8793 57.0547 50.498C57.551 50.9778 58.0582 51.448 58.5448 51.936C59.4756 52.8668 59.4839 54.1458 58.5558 55.0752C57.5181 56.1143 56.4639 57.1315 55.4152 58.1624C55.1315 58.4365 54.8367 58.7107 54.5475 58.9753C54.3172 59.1877 54.0773 59.2028 53.895 59.0164C53.7127 58.83 53.7318 58.5818 53.9539 58.3625C54.8038 57.5263 55.6592 56.6942 56.5105 55.8594V55.8594C56.6266 55.7454 56.6197 55.5523 56.504 55.438C56.4716 55.406 56.4393 55.3741 56.407 55.3422C56.2418 55.1794 55.9772 55.1779 55.8093 55.338C55.3648 55.7621 54.9123 56.1923 54.4652 56.627C54.1116 56.9711 53.7689 57.3262 53.4152 57.6702C53.3281 57.7548 53.2281 57.8252 53.1191 57.8786C53.0282 57.9273 52.9226 57.9411 52.8222 57.9173C52.7219 57.8936 52.6337 57.8339 52.5743 57.7495C52.515 57.6652 52.4885 57.5621 52.5 57.4596C52.5114 57.3571 52.56 57.2623 52.6365 57.1932C52.8984 56.9355 53.1849 56.6969 53.4398 56.4379C53.9882 55.8991 54.5255 55.3508 55.0725 54.8107C55.1051 54.7781 55.1388 54.7465 55.1734 54.7153C55.3592 54.5482 55.3654 54.2627 55.1779 54.0976L55.0484 53.9837C54.9246 53.8747 54.7331 53.904 54.6242 54.0279V54.0279C53.7743 54.8641 52.9221 55.6981 52.0676 56.5297C51.8442 56.7477 51.5974 56.7682 51.4151 56.5941C51.2328 56.42 51.2506 56.1596 51.4741 55.9197C52.3153 55.0199 53.1552 54.1188 53.9939 53.2165C54.0562 53.1496 54.1613 53.147 54.2267 53.2109V53.2109V53.2109C53.8664 52.8767 53.3069 52.8855 52.9577 53.2313C52.4865 53.6981 52.0038 54.1762 51.5179 54.6517C51.2616 54.9025 50.997 55.1438 50.727 55.3796C50.6469 55.4514 50.5423 55.4899 50.4348 55.487C50.3272 55.4842 50.2248 55.4402 50.1487 55.3642C50.0725 55.2883 50.0283 55.186 50.0253 55.0784C50.0222 54.9709 50.0604 54.8663 50.132 54.786C50.5104 54.4035 50.9107 54.043 51.2945 53.666C51.749 53.2204 52.1981 52.7649 52.6535 52.3067C52.8269 52.1323 52.8241 51.8495 52.6468 51.679L52.4654 51.5045C52.4047 51.4461 52.3065 51.4403 52.2459 51.4987V51.4987L49.6262 54.0608C49.5811 54.1105 49.5321 54.1563 49.4795 54.1979C49.3872 54.2659 49.2736 54.2987 49.1593 54.2904C49.0449 54.2821 48.9373 54.2333 48.8558 54.1527C48.8155 54.1118 48.7841 54.0629 48.7638 54.0092C48.7435 53.9555 48.7347 53.8981 48.738 53.8408C48.7412 53.7834 48.7564 53.7274 48.7826 53.6763C48.8088 53.6252 48.8454 53.5801 48.8901 53.544C49.2108 53.2246 49.5645 52.9367 49.8716 52.605C50.4608 51.9694 51.0256 51.3134 51.6011 50.6641C51.6061 50.6585 51.6145 50.6573 51.6208 50.6613V50.6613C51.6366 50.6713 51.6532 50.6498 51.6394 50.6371L51.1461 50.1808C51.1147 50.1518 51.0655 50.1542 51.0375 50.1865C50.941 50.2982 50.8645 50.3945 50.7791 50.4788C49.9566 51.2822 49.1373 52.0827 48.3212 52.8805C48.0868 53.1095 47.8318 53.1314 47.6495 52.9436C47.4671 52.7558 47.4904 52.5063 47.7276 52.2719C48.572 51.443 49.4183 50.6159 50.2664 49.7907V49.7907C50.3942 49.6765 50.4081 49.4746 50.2832 49.3571L50.1586 49.2399C50.0007 49.0914 49.7547 49.0898 49.5942 49.2355C49.3572 49.4507 49.1146 49.6707 48.8805 49.899C48.3842 50.3815 47.9017 50.8791 47.4082 51.3644C47.259 51.5078 47.1016 51.6424 46.9366 51.7674C46.854 51.831 46.7506 51.8615 46.6467 51.8529C46.5427 51.8444 46.4457 51.7975 46.3745 51.7213C46.3033 51.6452 46.263 51.5452 46.2615 51.441C46.26 51.3367 46.2974 51.2356 46.3664 51.1574C46.5802 50.9161 46.8132 50.6927 47.0518 50.472C47.7079 49.8323 48.3659 49.1925 49.0258 48.5528V48.5528C49.1296 48.4529 49.1496 48.2875 49.06 48.1746L48.8703 47.9357C48.7711 47.8107 48.5839 47.7853 48.4665 47.8935V47.8935L45.8619 50.4336C45.6055 50.6845 45.4287 50.7078 45.1573 50.5405C45.1093 50.5099 45.0688 50.469 45.0388 50.4207C45.0087 50.3725 44.9898 50.3181 44.9835 50.2615C44.9772 50.205 44.9836 50.1478 45.0023 50.0941C45.021 50.0403 45.0515 49.9915 45.0915 49.9511C45.5256 49.5307 45.961 49.1108 46.3979 48.6913L47.6379 47.4986C47.8233 47.3203 47.824 47.0238 47.6394 46.8447V46.8447C47.4648 46.6753 47.1784 46.6636 47.0105 46.8396C46.9948 46.8561 46.9793 46.8729 46.964 46.89C46.4404 47.4767 45.9291 48.0758 45.4027 48.6611C44.699 49.4416 43.9907 50.2184 43.2779 50.9915V50.9915C42.4311 51.9081 42.5198 53.3116 42.7773 54.5326C43.0457 55.8055 42.6219 57.0251 41.9578 57.7991C41.3811 58.4404 40.6162 58.8825 39.7727 59.0621C38.9292 59.2416 38.0505 59.1493 37.2627 58.7984C36.3977 58.413 35.7086 57.7175 35.3312 56.8491C35.0314 56.1887 34.8582 55.5155 34.9919 54.8099C35.0461 54.5238 34.8112 54.2393 34.5224 54.276V54.276C33.9254 54.3653 33.3159 54.3168 32.7407 54.134C32.1654 53.9513 31.6396 53.6393 31.2036 53.2219C30.5842 52.6567 30.1789 51.895 30.0562 51.0656V51.0656C30.0311 50.9594 30.0082 50.8521 30.0082 50.743V50.0843C30.0082 50.0269 30.0281 49.9719 30.0479 49.918V49.918C30.0529 49.9046 30.0559 49.8905 30.0581 49.8763C30.1853 49.0656 30.5819 48.3211 31.1844 47.7632C31.9157 47.059 32.8876 46.6596 33.9028 46.646C35.1288 46.6227 36.1255 47.1156 36.9457 47.968C37.0443 48.0705 37.143 48.1885 37.143 48.3308V48.3308C37.143 48.4025 37.1253 48.4732 37.0913 48.5364C36.8898 48.8338 36.543 48.8297 36.3003 48.5542C35.5286 47.6865 34.5566 47.3808 33.4298 47.5535C32.1248 47.755 31.364 48.6022 30.9623 49.7852C30.7594 50.3843 30.8513 50.9915 31.1159 51.5988C31.9384 53.4714 34.3688 54.0937 35.9261 52.775C36.5039 52.284 37.0531 51.7604 37.5711 51.2068C38.5307 50.1773 38.5979 48.694 37.7644 47.5535C37.5259 47.2272 37.5368 47.0627 37.837 46.7968C38.3854 46.3074 38.9474 45.8249 39.5012 45.3396C40.029 44.8763 40.5513 44.4088 41.0832 43.9509C41.5972 43.5078 42.1176 43.0709 42.6348 42.633C42.8336 42.4647 42.8468 42.1631 42.664 41.9776L42.4769 41.7875C42.419 41.7288 42.323 41.7211 42.2635 41.7782V41.7782L39.6822 44.2841C39.6239 44.346 39.5621 44.4046 39.4971 44.4595C39.4056 44.5364 39.2885 44.5759 39.1691 44.5703C39.0497 44.5647 38.9368 44.5144 38.8528 44.4294C38.8134 44.3878 38.7829 44.3385 38.7633 44.2847C38.7437 44.2308 38.7354 44.1735 38.7388 44.1163C38.7423 44.0591 38.7575 44.0032 38.7835 43.9521C38.8095 43.9011 38.8457 43.8559 38.8898 43.8194C39.0269 43.6713 39.2038 43.5452 39.3518 43.4081C39.9851 42.7967 40.6116 42.1744 41.2477 41.5726C41.2552 41.5654 41.2628 41.5583 41.2704 41.5513C41.5572 41.2857 41.5671 40.8637 41.3025 40.576V40.576C41.1613 40.4224 41.0763 40.4512 40.9529 40.5842C40.761 40.7926 40.5554 40.9954 40.3525 41.1887C39.6671 41.8559 38.9817 42.5216 38.2963 43.186C38.0824 43.3917 37.8425 43.4067 37.663 43.2395C37.6205 43.2043 37.5858 43.1606 37.5611 43.1113C37.5365 43.0619 37.5224 43.008 37.5199 42.9529C37.5173 42.8978 37.5262 42.8427 37.5462 42.7913C37.5661 42.7399 37.5965 42.6931 37.6355 42.6541C38.1016 42.1689 38.5787 41.6946 39.0612 41.223C39.4326 40.86 39.8008 40.5173 40.1577 40.1811C40.3339 40.0151 40.3424 39.7384 40.1778 39.5608V39.5608C40.0079 39.3774 39.7199 39.3709 39.5419 39.5465C38.7842 40.2935 38.0353 41.0319 37.2832 41.7672C37.1632 41.8856 37.0298 41.9896 36.8857 42.077C36.702 42.1881 36.4854 42.173 36.3799 41.9934C36.3017 41.8563 36.3195 41.6658 36.3236 41.4999C36.3236 41.441 36.4114 41.3806 36.4607 41.3285C37.2997 40.506 38.1391 39.6835 38.9789 38.861V38.861C39.1217 38.7227 39.1389 38.4999 38.9918 38.3661L38.7081 38.1082C38.6513 38.0566 38.5617 38.0515 38.5074 38.1057V38.1057C37.6337 38.9602 36.7605 39.8138 35.8877 40.6664C35.8869 40.6673 35.886 40.6683 35.8851 40.6692C35.7314 40.8303 35.5084 40.956 35.2965 40.8875C35.2949 40.8869 35.2933 40.8864 35.2917 40.8859C35.1832 40.8495 35.0909 40.7762 35.0309 40.6788C34.9295 40.5033 34.9761 40.3539 35.1365 40.2086C35.4107 39.9701 35.6478 39.7014 35.9028 39.4464C36.2716 39.0776 36.6362 38.7048 37.0118 38.3497C37.2253 38.1435 37.4442 37.9432 37.6625 37.7441C37.8463 37.5765 37.853 37.29 37.6777 37.1135V37.1135C37.5145 36.9492 37.2503 36.9385 37.0753 37.0901C36.9802 37.1723 36.8865 37.2555 36.7966 37.3422C36.0412 38.0728 35.2887 38.809 34.5388 39.5355C34.3263 39.7411 34.0851 39.7589 33.9041 39.5944C33.8614 39.5596 33.8264 39.5161 33.8013 39.4669C33.7763 39.4177 33.7619 39.3639 33.7589 39.3087C33.756 39.2536 33.7645 39.1985 33.7841 39.1469C33.8037 39.0953 33.8338 39.0484 33.8726 39.0091C34.2427 38.617 34.6266 38.2359 35.0145 37.859C35.4784 37.4119 35.9477 36.9647 36.4121 36.5221C36.5859 36.3565 36.5923 36.0814 36.4267 35.9078V35.9078C36.2608 35.734 35.9854 35.7277 35.8116 35.8936C35.347 36.337 34.889 36.7724 34.4346 37.2133C34.0673 37.5697 33.7108 37.9385 33.3462 38.2976C33.1104 38.5321 32.8088 38.5554 32.6169 38.3621C32.425 38.1688 32.4607 37.9207 32.7156 37.6767C33.4586 36.9455 34.2039 36.219 34.9514 35.497C35.0161 35.4348 35.0829 35.3748 35.1519 35.3149C35.3589 35.1351 35.3632 34.8177 35.1574 34.6366L34.9813 34.4816C34.9124 34.4209 34.8066 34.4176 34.7403 34.4812V34.4812L32.1357 37.0228C32.0836 37.0776 32.0287 37.1298 31.9713 37.179C31.9333 37.2156 31.8884 37.2442 31.8392 37.2631C31.79 37.282 31.7375 37.2908 31.6848 37.289C31.6321 37.2872 31.5803 37.2749 31.5325 37.2527V37.2527C31.4374 37.2085 31.3549 37.1328 31.3055 37.0404C31.3052 37.0399 31.3049 37.0394 31.3046 37.0389C31.2797 36.9917 31.2651 36.9398 31.2619 36.8866C31.2586 36.8334 31.2668 36.7801 31.2858 36.7303C31.3049 36.6805 31.3343 36.6353 31.3722 36.5978C31.9205 36.0413 32.4798 35.5107 33.0268 34.9528C33.3306 34.6469 33.6248 34.3283 33.902 34.0329C34.0445 33.881 34.0522 33.6462 33.9184 33.4866V33.4866C33.7703 33.31 33.5051 33.2904 33.3321 33.4426C33.1648 33.5898 33.0034 33.7328 32.8472 33.8822C32.1851 34.5169 31.5298 35.1598 30.8705 35.8014C30.5539 36.1072 30.3799 36.1465 30.1209 35.9238C30.0395 35.8539 30 35.7483 30 35.641V35.641C30 35.5296 30.0448 35.4229 30.1245 35.3452C30.6334 34.8485 31.1535 34.3528 31.6642 33.8548C32.5182 33.0227 33.375 32.192 34.2208 31.353C34.6453 30.9471 35.2099 30.7206 35.7973 30.7206C36.3846 30.7206 36.9492 30.9471 37.3737 31.353C38.1057 32.0384 38.8131 32.7499 39.5328 33.4476C40.0948 33.996 40.661 34.5374 41.2244 35.0844C41.9354 35.7753 42.6464 36.468 43.3574 37.1626C43.8852 37.6821 44.3992 38.2126 44.9297 38.7281V38.7281C45.5454 39.3295 46.5259 39.3533 47.1962 38.8134C47.245 38.7741 47.2938 38.7347 47.3424 38.6952C48.01 38.1469 48.6721 37.5985 49.3383 37.0502C50.0045 36.5019 50.7091 35.9398 51.3946 35.3874C52.0562 34.8537 52.7206 34.3213 53.3878 33.7903C54.6215 32.8102 55.8347 31.8191 57.0753 30.8554C57.4025 30.6002 57.767 30.3893 58.1253 30.1708C58.3052 30.061 58.5118 30.0012 58.7226 30.0034V30.0034ZM58.0845 31.2747C58.0958 31.2641 58.0967 31.2464 58.0866 31.2347V31.2347C58.0767 31.2233 58.0598 31.2214 58.0476 31.2302C57.731 31.4604 57.4083 31.6833 57.1 31.9233C56.4338 32.4396 55.7725 32.961 55.1164 33.4874C53.7647 34.5685 52.4149 35.6528 51.0669 36.7404C50.3834 37.2887 49.7011 37.8448 49.0203 38.4087C48.3541 38.957 47.6897 39.5053 47.0271 40.0537C46.3499 40.6139 45.6736 41.1768 44.9983 41.7425C44.3129 42.3142 43.6357 42.8858 42.9612 43.4643C41.9687 44.3142 40.9794 45.1682 39.9934 46.0264C39.8996 46.1074 39.8059 46.1885 39.7125 46.2696C39.0652 46.8313 38.9558 47.7084 39.1613 48.5405V48.5405C39.312 49.1196 39.275 49.7316 39.0557 50.2883C38.8446 50.8243 38.6184 51.3425 38.2154 51.7565C37.8124 52.1705 37.3929 52.5707 36.9693 52.9532C35.1872 54.5434 35.7479 57.0191 37.3806 57.8882C38.8569 58.6709 40.5335 58.2665 41.4629 57.0054C42.4471 55.6633 41.9948 53.8305 40.968 53.0916C40.5842 52.8175 40.5842 52.5954 40.905 52.2431V52.2431C41.2975 51.802 41.2411 51.1677 40.8748 50.7045C40.6675 50.4424 40.5825 50.2036 40.5102 49.8359C40.443 49.4918 40.5595 49.2711 40.8351 49.2218C41.1408 49.1656 41.3272 49.3095 41.3944 49.6687C41.4302 49.8809 41.5113 50.083 41.6322 50.2611V50.2611C41.8476 50.5786 42.2932 50.5333 42.5896 50.2898C42.8481 50.0775 43.0935 49.8715 43.3149 49.6399C43.9921 48.9408 44.635 48.2074 45.2875 47.485C45.9985 46.6981 46.7072 45.9099 47.4137 45.1203C48.0534 44.4084 48.6872 43.6941 49.315 42.9777C50.0087 42.1908 50.7 41.4007 51.3891 40.6075C52.0526 39.8444 52.7138 39.0786 53.3727 38.31C54.2007 37.3385 55.0259 36.3639 55.8484 35.386C56.3117 34.8377 56.7586 34.2688 57.2192 33.7149C57.2549 33.6721 57.2906 33.6293 57.3264 33.5865C57.4884 33.3927 57.2937 33.202 57.1123 33.3777V33.3777C56.4365 34.0275 55.7675 34.6828 55.0972 35.3353L53.0615 37.3134L51.0669 39.2517L49.0107 41.249C48.3541 41.8892 47.6947 42.5267 47.0381 43.1682C46.1772 44.0072 45.3181 44.8475 44.4609 45.6892L41.8001 48.2937C41.7558 48.3428 41.7051 48.3857 41.6493 48.4212C41.4629 48.5282 41.127 48.4761 41.0434 48.2842C40.9859 48.1471 40.9831 47.8866 41.0722 47.7975C41.7987 47.0682 42.5554 46.3691 43.2957 45.6549C44.0044 44.9695 44.7063 44.2841 45.4109 43.5986L47.3301 41.7412L49.3863 39.7425C50.0498 39.0955 50.7142 38.4493 51.3795 37.8041C52.0649 37.1448 52.7394 36.4881 53.4152 35.826C54.6444 34.6179 55.8726 33.4088 57.1 32.1988C57.1466 32.1522 57.1987 32.1111 57.2466 32.0617L58.0845 31.2747ZM57.4154 55.018C57.4179 55.0187 57.4205 55.0179 57.4222 55.0161C57.6227 54.8116 57.8082 54.6247 57.9896 54.4337C58.5229 53.8758 58.5243 53.1341 57.9814 52.5803C57.7072 52.2979 57.4016 52.0402 57.1164 51.7661C56.4502 51.1218 55.7858 50.4761 55.1232 49.8291C54.4378 49.1628 53.7524 48.4994 53.067 47.8304C52.0617 46.8452 51.0564 45.8573 50.0512 44.8667V44.8667C49.6828 44.503 49.0956 44.4973 48.756 44.888L48.6041 45.0627C48.2241 45.4998 48.2582 46.1581 48.6806 46.5545C48.8978 46.7583 49.1121 46.9607 49.3246 47.1655C50.0333 47.851 50.7352 48.5364 51.4412 49.2218C52.0809 49.8487 52.7252 50.4747 53.374 51.0998C54.1335 51.8383 54.8916 52.578 55.6483 53.3192C56.128 53.7908 56.5996 54.2788 57.078 54.7449C57.171 54.8392 57.287 54.9171 57.4127 55.0167C57.4135 55.0173 57.4144 55.0178 57.4154 55.018V55.018ZM45.3827 40.3102C45.3839 40.3105 45.3846 40.3089 45.3837 40.3081C45.2602 40.2053 45.1328 40.1142 45.0216 40.0057C44.3279 39.3349 43.6357 38.6627 42.9448 37.9892L40.9694 36.07C40.2447 35.3645 39.5195 34.6581 38.7939 33.9507C38.1085 33.2831 37.4231 32.6155 36.7376 31.9534C36.3003 31.534 35.7493 31.427 35.2297 31.73V31.73C34.6422 32.0712 34.6791 32.9365 35.1716 33.4047C35.1929 33.4249 35.2141 33.4451 35.2352 33.4655C35.911 34.1139 36.58 34.7691 37.2517 35.423C37.9234 36.0769 38.6088 36.7404 39.286 37.4011C40.1332 38.2236 40.979 39.0511 41.8234 39.8837C42.21 40.262 42.5842 40.6514 42.9722 41.027V41.027C43.3943 41.4324 44.064 41.421 44.5123 41.0448C44.5221 41.0366 44.5319 41.0283 44.5418 41.0201C44.8103 40.7954 45.0816 40.5611 45.3816 40.3104C45.3819 40.3102 45.3823 40.3101 45.3827 40.3102V40.3102Z" fill="black"/>
<path d="M33.9673 52.6009C33.6819 52.6081 33.398 52.558 33.1322 52.4538C32.8665 52.3495 32.6243 52.1932 32.42 51.9939C32.2156 51.7946 32.0531 51.5565 31.9422 51.2934C31.8312 51.0304 31.774 50.7479 31.7739 50.4624C31.7739 49.2698 32.7335 48.3363 33.9768 48.3335C34.2616 48.3272 34.5447 48.3779 34.8096 48.4827C35.0744 48.5874 35.3156 48.7442 35.5189 48.9436C35.7223 49.143 35.8836 49.3811 35.9935 49.6439C36.1034 49.9067 36.1596 50.1888 36.1588 50.4736C36.158 50.7584 36.1001 51.0401 35.9887 51.3023C35.8773 51.5644 35.7146 51.8016 35.5101 51.9998C35.3056 52.1981 35.0635 52.3534 34.7981 52.4566C34.5326 52.5599 34.2492 52.6089 33.9645 52.6009H33.9673ZM33.9673 51.7469C34.6678 51.7469 35.3052 51.141 35.3024 50.4748C35.2997 49.8086 34.6732 49.1944 33.9755 49.1903C33.6274 49.1876 33.292 49.3209 33.0408 49.5619C32.7896 49.8028 32.6425 50.1324 32.6307 50.4803C32.6293 51.167 33.2393 51.7469 33.9659 51.7469H33.9673Z" fill="black"/>
<path d="M38.9105 57.4385C37.8659 57.4988 36.6966 56.4186 36.7076 55.3206C36.7172 54.1992 37.7947 53.1478 38.9105 53.167C40.1141 53.1876 41.1614 54.1746 41.1573 55.3206C41.1532 56.4666 40.1141 57.4344 38.9105 57.4385ZM38.9338 54.0251C38.5946 54.0162 38.2658 54.1424 38.0196 54.376C37.7735 54.6096 37.6302 54.9313 37.6212 55.2705C37.6123 55.6098 37.7385 55.9386 37.9721 56.1848C38.2057 56.4309 38.5274 56.5742 38.8667 56.5831C39.6302 56.5982 40.2375 56.0567 40.2471 55.337C40.2502 55.1638 40.2184 54.9916 40.1535 54.831C40.0886 54.6703 39.992 54.5243 39.8694 54.4018C39.7468 54.2794 39.6007 54.1829 39.44 54.1182C39.2792 54.0534 39.1071 54.0218 38.9338 54.0251Z" fill="black"/>
</svg>
