<svg xmlns="http://www.w3.org/2000/svg" viewBox="0 0 50 50">
  <path d="M39.3125 0C38.628906 0.0234375 37.945313 0.125 37.21875 0.4375C36.253906 0.855469 35.292969 1.605469 33.9375 2.9375C33.929688 2.945313 33.914063 2.929688 33.90625 2.9375C33.890625 2.953125 31.214844 5.441406 28.28125 8.34375C26.808594 9.800781 25.273438 11.34375 24 12.75C22.726563 14.15625 21.714844 15.378906 21.1875 16.375C20.539063 17.601563 19.859375 18.863281 19.15625 20.09375L17.03125 20.03125C17.023438 19.964844 17.03125 20.011719 17.03125 19.90625C17.03125 17.777344 16.101563 15.96875 14.53125 14.78125C12.960938 13.59375 10.804688 13 8.34375 13C5.878906 13 3.804688 13.578125 2.3125 14.78125C0.820313 15.984375 0 17.804688 0 19.90625C0 22.574219 1.242188 24.722656 3.5 25.84375C5.746094 26.957031 8.847656 27.226563 12.875 26.84375C12.890625 26.84375 12.921875 26.84375 12.9375 26.84375C13.101563 26.835938 13.273438 26.804688 13.625 26.78125C14.011719 26.753906 14.511719 26.722656 15 26.6875C15.160156 26.675781 15.160156 26.667969 15.3125 26.65625C14.984375 27.226563 14.644531 27.820313 14.375 28.3125C12.414063 31.890625 11.398438 34.859375 11.53125 37.375C11.609375 38.859375 12.183594 40.152344 13.125 41.1875C13.15625 41.265625 13.199219 41.339844 13.25 41.40625C13.449219 41.667969 13.378906 41.511719 13.375 41.6875C13.371094 41.863281 13.28125 42.378906 13.125 43.28125C12.769531 45.292969 13.226563 47.410156 14.59375 48.78125C14.695313 48.882813 15.066406 49.332031 15.625 49.65625C15.90625 49.820313 16.25 49.980469 16.6875 50C17.125 50.019531 17.664063 49.835938 18.03125 49.5C18.503906 49.066406 18.753906 48.273438 18.625 47.6875C18.496094 47.101563 18.21875 46.695313 17.90625 46.1875C17.941406 46.242188 17.800781 45.910156 17.75 45.5625C17.699219 45.214844 17.699219 44.792969 17.75 44.5C17.808594 44.160156 17.78125 43.800781 18.6875 43.5C19.558594 43.449219 20.40625 43.230469 21.1875 42.8125C22.875 41.910156 24.21875 40.230469 25.1875 37.96875C26.15625 35.707031 26.449219 33.5625 25.9375 31.71875C25.425781 29.875 24.078125 28.386719 22.15625 27.5625C22.050781 27.515625 21.953125 27.4375 21.96875 27.46875C21.984375 27.5 21.894531 27.578125 22.125 27.25C22.367188 26.902344 22.617188 26.648438 22.84375 26.375L26.40625 25.71875C26.417969 25.71875 26.425781 25.71875 26.4375 25.71875C30.097656 25.027344 35.179688 23.035156 39.4375 21.21875C43.679688 19.410156 47.039063 17.761719 47.0625 17.75C47.070313 17.746094 47.085938 17.753906 47.09375 17.75C48.410156 17.167969 49.167969 16.285156 49.5625 15.53125C49.957031 14.773438 50 14.0625 50 14.0625C50.019531 13.777344 49.914063 13.496094 49.710938 13.289063C49.503906 13.085938 49.222656 12.980469 48.9375 13C48.90625 13.007813 48.875 13.019531 48.84375 13.03125L32.40625 15.78125L40.875 1.5C41.054688 1.1875 41.054688 0.804688 40.871094 0.496094C40.691406 0.1875 40.359375 -0.00390625 40 0C39.769531 0 39.539063 -0.0078125 39.3125 0 Z M 38.03125 2.28125C38.039063 2.277344 38.054688 2.285156 38.0625 2.28125L29.25 17.21875L29.21875 17.25C27.375 20.050781 26.035156 21.128906 24.71875 22.09375C23.394531 23.0625 21.976563 23.964844 20.46875 26.125C19.96875 26.839844 19.878906 27.71875 20.1875 28.34375C20.496094 28.96875 21 29.242188 21.375 29.40625C22.839844 30.035156 23.648438 30.976563 24 32.25C24.351563 33.523438 24.1875 35.21875 23.34375 37.1875C22.5 39.15625 21.414063 40.410156 20.25 41.03125C19.785156 41.28125 19.3125 41.4375 18.8125 41.5C18.644531 41.46875 18.472656 41.480469 18.3125 41.53125C17.707031 41.527344 17.0625 41.386719 16.375 41.09375C15.746094 40.824219 15.25 40.53125 14.84375 40.1875C14.78125 40.105469 14.707031 40.03125 14.625 39.96875C14.605469 39.949219 14.582031 39.925781 14.5625 39.90625C14.550781 39.90625 14.542969 39.90625 14.53125 39.90625C13.898438 39.234375 13.589844 38.382813 13.53125 37.28125C13.433594 35.410156 14.253906 32.695313 16.125 29.28125C17.707031 26.382813 20.636719 21.734375 22.96875 17.3125C23.28125 16.71875 24.234375 15.457031 25.46875 14.09375C26.703125 12.730469 28.230469 11.222656 29.6875 9.78125C32.597656 6.902344 35.28125 4.40625 35.28125 4.40625C35.292969 4.394531 35.300781 4.386719 35.3125 4.375C36.605469 3.101563 37.429688 2.539063 38.03125 2.28125 Z M 8.34375 15C10.484375 15 12.195313 15.53125 13.3125 16.375C14.429688 17.21875 15.03125 18.328125 15.03125 19.90625C15.03125 20.109375 14.933594 20.574219 15.21875 21.15625C15.363281 21.445313 15.648438 21.753906 16 21.90625C16.316406 22.042969 16.667969 22.054688 17 22.03125C17.042969 22.027344 17.082031 22.035156 17.125 22.03125L18 22.0625C17.480469 22.949219 16.984375 23.773438 16.5 24.59375C16.277344 24.605469 15.675781 24.628906 14.84375 24.6875C14.359375 24.722656 13.882813 24.753906 13.5 24.78125C13.117188 24.808594 12.738281 24.847656 12.8125 24.84375C12.792969 24.84375 12.769531 24.84375 12.75 24.84375C8.875 25.21875 6.085938 24.894531 4.40625 24.0625C2.726563 23.230469 2 22.03125 2 19.90625C2 18.300781 2.53125 17.171875 3.5625 16.34375C4.59375 15.515625 6.199219 15 8.34375 15 Z M 46.875 15.375C46.648438 15.566406 46.628906 15.773438 46.25 15.9375C46.238281 15.9375 46.230469 15.9375 46.21875 15.9375C46.21875 15.9375 42.863281 17.582031 38.65625 19.375C34.449219 21.167969 29.355469 23.125 26.0625 23.75L25.75 23.8125C25.804688 23.773438 25.851563 23.730469 25.90625 23.6875C27.296875 22.667969 28.925781 21.328125 30.90625 18.3125C30.917969 18.292969 30.929688 18.269531 30.9375 18.25L31.03125 18.0625 Z M 8.5 16C6.082031 16 4.621094 16.621094 3.8125 17.5625C3.003906 18.503906 3 19.628906 3 20C3 20.371094 3.003906 21.496094 3.8125 22.4375C4.621094 23.378906 6.082031 24 8.5 24C10.917969 24 12.378906 23.378906 13.1875 22.4375C13.996094 21.496094 14 20.371094 14 20C14 19.628906 13.992188 18.503906 13.1875 17.5625C12.382813 16.621094 10.917969 16 8.5 16 Z M 8.5 18C10.582031 18 11.371094 18.503906 11.6875 18.875C12.003906 19.246094 12 19.628906 12 20C12 20.371094 12.003906 20.753906 11.6875 21.125C11.371094 21.496094 10.582031 22 8.5 22C6.417969 22 5.628906 21.496094 5.3125 21.125C4.996094 20.753906 5 20.371094 5 20C5 19.628906 4.996094 19.246094 5.3125 18.875C5.628906 18.503906 6.417969 18 8.5 18 Z M 21 22C20.445313 22 20 22.445313 20 23C20 23.554688 20.445313 24 21 24C21.554688 24 22 23.554688 22 23C22 22.445313 21.554688 22 21 22 Z M 19.34375 29.90625C19.082031 29.917969 18.792969 29.972656 18.5 30.0625C17.332031 30.425781 16.1875 31.507813 15.25 33.6875C14.316406 35.871094 14.300781 37.464844 14.84375 38.5625C15.386719 39.660156 16.417969 40.074219 16.75 40.21875C17.085938 40.363281 18.082031 40.800781 19.25 40.4375C20.417969 40.074219 21.5625 38.992188 22.5 36.8125C23.4375 34.632813 23.449219 33.035156 22.90625 31.9375C22.363281 30.839844 21.335938 30.425781 21 30.28125C20.835938 30.210938 20.503906 30.050781 20.0625 29.96875C19.84375 29.929688 19.605469 29.894531 19.34375 29.90625 Z M 19.40625 31.90625C19.707031 31.898438 19.964844 32.015625 20.21875 32.125C20.554688 32.269531 20.882813 32.417969 21.09375 32.84375C21.304688 33.269531 21.460938 34.160156 20.65625 36.03125C19.851563 37.902344 19.105469 38.390625 18.65625 38.53125C18.207031 38.671875 17.863281 38.519531 17.53125 38.375C17.195313 38.230469 16.867188 38.078125 16.65625 37.65625C16.445313 37.234375 16.289063 36.375 17.09375 34.5C17.898438 32.625 18.644531 32.109375 19.09375 31.96875C19.207031 31.933594 19.304688 31.910156 19.40625 31.90625 Z M 15.25 42.75C15.367188 42.808594 15.472656 42.886719 15.59375 42.9375C15.789063 43.023438 15.988281 43.089844 16.1875 43.15625C15.960938 43.542969 15.824219 43.914063 15.78125 44.15625C15.679688 44.738281 15.707031 45.324219 15.78125 45.84375C15.855469 46.363281 15.914063 46.773438 16.1875 47.21875C16.382813 47.539063 16.457031 47.65625 16.53125 47.8125C16.355469 47.679688 16.140625 47.515625 16 47.375C15.269531 46.644531 14.839844 45.070313 15.09375 43.625C15.15625 43.265625 15.203125 43.011719 15.25 42.75Z" fill="#5B5B5B" />
</svg>