<svg xmlns="http://www.w3.org/2000/svg" viewBox="0 0 50 50">
  <path d="M26 4C14.38 4 13.809687 14.579844 13.429688 21.589844C13.279687 24.319844 13.129844 27.149609 12.339844 27.849609C12.119844 28.039609 12 28.309609 12 28.599609C12 30.920337 15.111265 31.656528 19.054688 32.166016 A 1.0001 1.0001 0 0 0 19 32.5C19 32.518242 19.005449 32.534653 19.005859 32.552734C18.302487 33.785274 16.307367 34.577929 14.199219 35.400391C10.249219 36.930391 5.34 38.839219 5 44.949219C4.99 45.219219 5.0795313 45.489453 5.2695312 45.689453C5.4595312 45.889453 5.73 46 6 46L24.419922 46C24.549922 45.71 24.719922 45.439687 24.919922 45.179688C24.939922 45.149687 24.970234 45.119844 24.990234 45.089844L25.910156 44L7.1191406 44C7.8591406 40 11.439922 38.609766 14.919922 37.259766C16.921454 36.479757 18.830445 35.734226 20.037109 34.496094C20.32405 34.737632 20.646894 34.949511 20.992188 35.126953C22.070626 35.681151 23.457143 36 25 36C26.554762 36 27.946074 35.6495 29.017578 35.083984C29.373457 34.896159 29.70704 34.678753 30 34.431641C30.675835 35.125542 31.558548 35.672425 32.550781 36.150391L33.890625 34.560547C32.549184 33.969562 31.49564 33.340409 30.998047 32.472656 A 1.0001 1.0001 0 0 0 30.947266 32.171875C33.497612 31.846813 38.199219 30.916305 38.199219 28.5C38.199219 28.22 38.079141 27.949766 37.869141 27.759766C37.169141 27.129766 37.229297 24.359922 37.279297 21.919922C37.379297 17.449922 37.499063 11.879375 34.289062 8.609375C32.709063 6.999375 30.469141 6.1197656 27.619141 6.0097656L26.890625 4.5507812C26.730625 4.2107812 26.38 4 26 4 z M 25.390625 6.0097656L26.109375 7.4492188C26.269375 7.7892188 26.62 8 27 8C29.62 8 31.539375 8.6597656 32.859375 10.009766C35.479375 12.679766 35.369297 17.780859 35.279297 21.880859C35.219297 24.810859 35.169531 27.209141 36.019531 28.619141C35.419531 29.089141 33.500937 29.950781 29.710938 30.300781C29.420938 30.330781 29.17 30.479219 29 30.699219C28.83 30.929219 28.760313 31.22 28.820312 31.5C28.900312 31.9 28.900391 32.22 28.900391 32.5C28.900391 32.536527 28.917887 32.572848 28.921875 32.609375C28.847174 32.733626 28.659113 33.012866 28.083984 33.316406C27.355488 33.70089 26.245238 34 25 34C23.742857 34 22.627812 33.718459 21.90625 33.347656C21.434443 33.105201 21.206892 32.862133 21.095703 32.693359C21.197248 31.964378 21.199219 31.602626 21.199219 31.300781C21.199219 30.790781 20.820312 30.370547 20.320312 30.310547C15.870313 29.780547 14.479141 29.219844 14.119141 28.839844C15.119141 27.409844 15.259687 24.849219 15.429688 21.699219C15.799687 14.849219 16.260625 6.3697656 25.390625 6.0097656 z M 43.179688 26.041016C42.387417 26.055846 41.770857 26.528036 41.478516 27.212891L41.523438 27.121094L39.09375 31.521484L26.517578 46.380859 A 1.0001 1.0001 0 0 0 26.5 46.402344C25.819064 47.253958 25.808036 48.510281 26.609375 49.333984C27.412631 50.202374 28.783857 50.201795 29.625 49.443359L32 47.4375L32 48 A 1.0001 1.0001 0 0 0 33 49L37.832031 49 A 1.0001 1.0001 0 0 0 38.158203 49L42.832031 49 A 1.0001 1.0001 0 0 0 43.158203 49L48 49 A 1.0001 1.0001 0 0 0 49 48L49 43.167969 A 1.0001 1.0001 0 0 0 49 42.841797L49 38 A 1.0001 1.0001 0 0 0 48 37L44.396484 37L48.910156 34.507812L48.822266 34.550781C49.545986 34.239689 49.902644 33.572246 49.990234 32.960938 A 1.0001 1.0001 0 0 0 50.001953 32.820312C50.001953 32.270212 49.976823 29.703386 48.128906 27.855469C47.219739 26.946301 46.126464 26.486173 45.203125 26.251953C44.305761 26.024322 43.629531 26.004946 43.179688 26.041016 z M 43.304688 28.027344C43.384037 28.020244 44.032704 28.019344 44.710938 28.191406C45.390099 28.363687 46.140011 28.694699 46.714844 29.269531C47.800232 30.35492 47.978093 32.415714 47.988281 32.736328 A 1.0001 1.0001 0 0 0 47.943359 32.757812L44.009766 34.929688L41.103516 32.021484L43.275391 28.087891 A 1.0001 1.0001 0 0 0 43.304688 28.027344 z M 48.03125 32.714844 A 1.0001 1.0001 0 0 0 48.007812 32.726562L48.007812 32.722656C48.011272 32.722017 48.012407 32.722943 48.03125 32.714844 z M 39.908203 33.65625L42.34375 36.091797L28.310547 47.9375 A 1.0001 1.0001 0 0 0 28.287109 47.958984C28.178982 48.056484 28.1339 48.052875 28.072266 47.984375 A 1.0001 1.0001 0 0 0 28.035156 47.945312C27.996266 47.906422 27.98346 47.74924 28.0625 47.650391L39.908203 33.65625 z M 41.996094 39 A 1.0001 1.0001 0 0 0 42 39L42 42L39 42L39 41.529297L41.996094 39 z M 44 39L47 39L47 42L44 42L44 39 z M 36.072266 44L37 44L37 47L34 47L34 46 A 1.0001 1.0001 0 0 0 33.974609 45.771484L36.072266 44 z M 39 44L42 44L42 47L39 47L39 44 z M 44 44L47 44L47 47L44 47L44 44 z" fill="#5B5B5B" />
</svg>