<svg width="90" height="90" viewBox="0 0 90 90" fill="none" xmlns="http://www.w3.org/2000/svg">
<rect width="90" height="90" rx="4" fill="#F8F8FB"/>
<g clip-path="url(#clip0_96_165)">
<path d="M30.0049 51.6497C30.2047 51.4889 30.3838 51.2842 30.6079 51.177C31.5176 50.7215 32.5059 50.4441 33.5197 50.3595C33.8499 50.3339 34.1825 50.3254 34.548 50.3083C34.6309 50.072 34.7064 49.7905 34.827 49.5298C35.2941 48.4635 35.9934 47.5149 36.8738 46.7532C37.2722 46.417 37.5317 46.3963 37.8948 46.7532C38.4028 47.2589 38.8816 47.7925 39.414 48.3578C40.4935 47.6633 41.7885 47.3234 43.1689 46.9811C42.9435 46.8958 42.7863 46.8337 42.6267 46.7788C41.5174 46.4 40.5044 45.7828 39.6589 44.9708C38.1494 43.5222 38.2164 41.5997 39.7503 40.1755C40.837 39.1643 42.1443 38.599 43.538 38.1848L44.0376 38.041C43.8877 37.9715 43.7817 37.9277 43.6806 37.8753C42.9112 37.4965 42.223 36.9713 41.6545 36.3292C40.558 35.0354 40.6969 33.3797 41.8543 32.2125C42.2467 31.8335 42.6803 31.4996 43.147 31.2171C44.8855 30.1133 46.8214 29.9062 48.8195 30.0329C49.9794 30.106 51.1087 30.3436 52.1455 30.8699C52.9155 31.261 53.6465 31.7313 54.2069 32.4172C55.2718 33.722 55.2011 35.3704 54.0047 36.5595C53.4442 37.1429 52.7771 37.6135 52.0395 37.946C51.9871 37.9679 51.9372 37.9983 51.8483 38.0446C52.0785 38.1129 52.2771 38.1555 52.4574 38.231C53.2932 38.5771 54.1631 38.8634 54.9452 39.3044C55.5409 39.6539 56.0738 40.1007 56.5218 40.6263C57.639 41.9092 57.561 43.6063 56.3585 44.8198C55.9517 45.227 55.4963 45.5826 55.0025 45.8785C54.3117 46.2964 53.5734 46.6351 52.8716 46.9993C53.2225 47.0932 53.6355 47.1821 54.0352 47.3125C54.7016 47.5305 55.3899 47.7133 56.0125 48.0227C57.0651 48.5442 58.0995 49.1071 58.9365 49.9721C59.9526 51.032 60.2888 52.5988 59.7345 53.7757C59.2837 54.7321 58.5771 55.4411 57.7109 56.0259C55.8834 57.2577 53.8317 57.8534 51.6899 58.197C49.4781 58.5515 47.227 58.588 45.0049 58.3054C44.2325 58.2104 43.471 58.0289 42.7047 57.8851C42.5999 57.8656 42.4964 57.8412 42.3551 57.812C42.3551 57.9533 42.3551 58.0776 42.3368 58.1994C42.2673 58.8683 42.215 59.5396 42.1187 60.2024C42.0529 60.641 41.7812 60.8115 41.3426 60.7628C39.9038 60.5983 38.5588 60.1816 37.4549 59.3118C36.8068 59.6395 36.2086 60.022 35.5568 60.2511C34.855 60.4948 34.107 60.6166 33.3723 60.7603C32.9825 60.8347 32.7412 60.6239 32.6499 60.206C32.3331 58.7525 32.2953 57.3076 32.8034 55.8822C32.8064 55.8636 32.8064 55.8447 32.8034 55.8261C32.5755 55.6409 32.3319 55.4752 32.126 55.2706C31.2654 54.4196 30.5904 53.3996 30.1438 52.2747C30.1048 52.1785 30.0475 52.0883 30 51.9945L30.0049 51.6497ZM40.2315 50.3449C40.2695 50.3502 40.3077 50.353 40.346 50.3534C41.7922 50.3083 43.0861 50.7823 44.3032 51.5133C44.6455 51.7191 44.7405 51.9348 44.6077 52.3003C44.1716 53.515 43.4347 54.5994 42.4659 55.4521C42.3075 55.5934 42.1284 55.7104 41.9518 55.842C42.0103 56.0186 42.0578 56.188 42.1248 56.3488C42.1524 56.4165 42.204 56.4716 42.2698 56.5035C42.5635 56.6255 42.8672 56.7221 43.1774 56.7923C44.2057 56.9665 45.234 57.1797 46.2708 57.2528C48.7233 57.4258 51.1611 57.3186 53.5283 56.5547C54.241 56.3244 54.9562 56.0905 55.6494 55.8091C56.6716 55.3936 57.5768 54.8027 58.2798 53.928C58.9365 53.1105 59.0279 52.2138 58.4565 51.3342C58.0558 50.7321 57.5296 50.2238 56.9141 49.8441C55.4119 48.8829 53.7184 48.3821 52.0042 48.0569C48.9486 47.4696 45.8809 47.4721 42.8509 48.3224C41.8446 48.6039 40.8565 48.9182 39.9269 49.4189C40.0305 49.7357 40.1304 50.0366 40.2315 50.3449ZM47.4501 46.5193C49.3568 46.4608 50.7566 46.3841 52.0871 45.8712C52.8034 45.5946 53.5295 45.3302 54.2167 44.9928C54.8047 44.7062 55.3156 44.283 55.7067 43.7586C56.3914 42.8449 56.194 41.9311 55.435 41.1623C54.5895 40.2949 53.4918 39.8405 52.3892 39.4408C51.6597 39.1927 50.9057 39.0236 50.1402 38.9365C47.6036 38.6026 45.1073 38.7172 42.7084 39.7552C41.8799 40.1146 41.0807 40.5154 40.435 41.1611C39.8173 41.7776 39.5237 42.6231 39.9074 43.3322C40.1306 43.765 40.4409 44.147 40.8187 44.4543C41.9481 45.3461 43.281 45.8005 44.6394 46.127C45.7189 46.3853 46.8409 46.4389 47.4501 46.5193ZM48.0325 37.4538C49.4494 37.3161 50.9857 37.0883 52.2393 36.3731C52.9703 35.954 53.6904 35.145 53.7184 34.2593C53.7476 33.2846 52.8229 32.5878 52.0542 32.1479C50.301 31.1453 47.9935 31.0088 46.0466 31.4169C44.5115 31.7325 42.1638 32.4489 42.1479 34.3811C42.1236 37.1212 44.9501 37.6706 47.1431 37.5305C47.4038 37.5074 47.7035 37.4854 48.0325 37.4538ZM35.8711 55.1597C35.6969 54.7711 35.5775 54.4104 35.3838 54.0949C34.9878 53.4492 34.6528 52.7864 34.531 52.0323C34.5042 51.8617 34.481 51.6911 34.4542 51.5145C33.3516 51.4292 32.3562 51.707 31.3731 52.1102C31.7538 53.0268 32.331 53.8486 33.0641 54.5176C33.8755 55.2572 34.8027 55.3108 35.8711 55.1597ZM33.7135 59.5286C36.1038 59.2703 37.6121 57.8339 37.6414 56.082C37.4104 56.0685 37.1788 56.071 36.9481 56.0893C36.7191 56.121 36.4998 56.2209 36.2719 56.2684C35.4967 56.4544 34.6892 56.4614 33.9108 56.2891C33.5149 57.3661 33.5417 58.4419 33.7135 59.5286ZM41.0758 59.5469C41.1099 59.1875 41.1574 58.85 41.1684 58.5125C41.1976 57.628 41.1355 56.7533 40.6994 55.954C40.3509 55.3181 39.8148 54.8904 39.1289 54.5993C39.0473 54.8831 38.9279 55.1305 38.9121 55.3827C38.8475 56.4012 38.7452 57.4051 38.1701 58.2884C38.9839 59.0535 39.9696 59.3775 41.0758 59.5469ZM41.3621 54.8295C41.5583 54.6529 41.7435 54.486 41.9274 54.3178C42.4722 53.7997 42.921 53.1893 43.253 52.5147C43.3212 52.3844 43.3297 52.2954 43.1665 52.215C42.3819 51.8276 41.5753 51.5218 40.686 51.5169C39.665 51.5108 38.8207 51.8763 38.1798 52.7084C38.4101 52.8692 38.5977 53.063 38.8256 53.1482C39.7929 53.5113 40.7152 53.9292 41.3621 54.8295ZM37.4001 47.8851C35.6482 49.4823 35.145 51.5778 36.155 53.0544C36.384 52.8595 36.6253 52.6804 36.8348 52.4696C36.9956 52.3064 37.1053 52.0932 37.2576 51.919C37.7431 51.3531 38.3549 50.9095 39.0436 50.6239C38.8426 49.4884 38.1007 48.7099 37.4001 47.8802V47.8851ZM37.9703 54.2947C37.9658 54.1447 37.9036 54.0023 37.7966 53.897C37.6896 53.7918 37.5462 53.7319 37.3961 53.7299C37.2461 53.7278 37.1011 53.7838 36.9913 53.8861C36.8815 53.9883 36.8154 54.129 36.8068 54.2788C36.7974 54.3601 36.8052 54.4424 36.8296 54.5204C36.854 54.5985 36.8946 54.6706 36.9486 54.732C37.0025 54.7934 37.0688 54.8428 37.1431 54.877C37.2174 54.9112 37.298 54.9295 37.3798 54.9306C37.4616 54.9317 37.5426 54.9156 37.6178 54.8835C37.693 54.8513 37.7606 54.8037 37.8163 54.7438C37.8719 54.6839 37.9144 54.6129 37.9409 54.5356C37.9674 54.4582 37.9775 54.3762 37.9703 54.2947Z" fill="black"/>
<path d="M50.9504 49.0656C51.2106 49.0052 51.4793 48.9899 51.7447 49.0205C53.3504 49.2898 55.6324 50.167 56.8446 51.2951C57.3856 51.7995 58.0629 53.8293 56.6655 52.879C56.4579 52.7204 56.2647 52.5439 56.088 52.3514C55.2121 51.4986 54.0498 51.0393 52.8851 50.7262C52.3526 50.5836 51.7813 50.5227 51.2403 50.4082C50.9655 50.3681 50.7082 50.2492 50.4996 50.0658C49.9391 49.4993 50.4058 49.1887 50.9504 49.0656Z" fill="black"/>
<path d="M49.1058 49.4957C49.1034 49.6106 49.0669 49.7222 49.0011 49.8164C48.9352 49.9106 48.8429 49.9831 48.7358 50.0248C48.6287 50.0666 48.5117 50.0756 48.3995 50.0508C48.2873 50.026 48.1849 49.9685 48.1054 49.8856C48.0258 49.8026 47.9726 49.698 47.9526 49.5848C47.9325 49.4716 47.9465 49.3551 47.9927 49.2498C48.0388 49.1446 48.1152 49.0554 48.2121 48.9936C48.3089 48.9317 48.422 48.9 48.5369 48.9023C48.6893 48.9104 48.833 48.9762 48.9387 49.0864C49.0444 49.1966 49.1042 49.343 49.1058 49.4957Z" fill="black"/>
<path d="M48.3553 40.0062C50.3046 40.0878 52.1699 40.4508 53.8573 41.4681C54.187 41.689 54.4885 41.9492 54.7552 42.243C54.807 42.2954 54.8477 42.3578 54.8749 42.4263C54.902 42.4949 54.9151 42.5682 54.9133 42.6419C54.9115 42.7156 54.8948 42.7882 54.8643 42.8553C54.8338 42.9224 54.79 42.9827 54.7357 43.0325C54.6865 43.0874 54.6265 43.1316 54.5596 43.1625C54.4926 43.1934 54.4201 43.2103 54.3464 43.2121C54.2727 43.2139 54.1994 43.2006 54.131 43.1731C54.0626 43.1456 54.0005 43.1044 53.9487 43.052C53.3224 42.4635 52.5512 42.1553 51.7751 41.8336C50.6019 41.3402 49.3726 41.2318 48.1287 41.1721C48.0408 41.1717 47.9529 41.1664 47.8655 41.1563C47.7225 41.1406 47.5905 41.072 47.4955 40.964C47.4005 40.8559 47.3494 40.7162 47.3521 40.5724C47.3549 40.4286 47.4113 40.2909 47.5104 40.1866C47.6095 40.0823 47.744 40.0188 47.8875 40.0086C48.0433 39.9992 48.1994 39.9984 48.3553 40.0062Z" fill="black"/>
<path d="M48.3846 32.3928C49.347 32.461 50.2864 32.6365 51.1429 33.0897C51.5719 33.3326 51.9752 33.6183 52.3466 33.9425C52.4093 33.9904 52.4609 34.0514 52.4979 34.1212C52.5348 34.1909 52.5562 34.2679 52.5606 34.3467C52.565 34.4255 52.5523 34.5044 52.5233 34.5778C52.4944 34.6513 52.4499 34.7176 52.3929 34.7722C52.1723 35.0085 51.8604 35.0317 51.5814 34.7978C50.6178 33.9876 49.4713 33.7013 48.253 33.6282C48.1312 33.6209 47.9984 33.6282 47.8729 33.6063C47.7248 33.5839 47.5902 33.5079 47.4946 33.3926C47.3991 33.2773 47.3494 33.1308 47.3549 32.9812C47.3605 32.8316 47.421 32.6893 47.5248 32.5814C47.6287 32.4735 47.7686 32.4077 47.9179 32.3965C48.0727 32.3818 48.2335 32.3928 48.3846 32.3928Z" fill="black"/>
</g>
<defs>
<clipPath id="clip0_96_165">
<rect x="30" y="30" width="30" height="30.7751" rx="4" fill="white"/>
</clipPath>
</defs>
</svg>
