<svg width="16" height="22" viewBox="0 0 16 22" fill="none" xmlns="http://www.w3.org/2000/svg">
<path d="M14.75 21.5C14.5666 21.5005 14.3893 21.4338 14.2517 21.3125L8 15.7536L1.74828 21.3125C1.6401 21.4087 1.50639 21.4715 1.3633 21.4933C1.22021 21.5152 1.07385 21.4952 0.941874 21.4357C0.809902 21.3763 0.697959 21.2799 0.619552 21.1582C0.541145 21.0365 0.499626 20.8948 0.500003 20.75V3.5C0.500871 2.70462 0.817221 1.94206 1.37964 1.37964C1.94206 0.817218 2.70462 0.500869 3.5 0.5H12.5C13.2954 0.500869 14.0579 0.817218 14.6204 1.37964C15.1828 1.94206 15.4991 2.70462 15.5 3.5V20.75C15.5 20.9489 15.421 21.1397 15.2803 21.2803C15.1397 21.421 14.9489 21.5 14.75 21.5Z" fill="#BBBBBB"/>
</svg>
